<svg xmlns="http://www.w3.org/2000/svg" xmlns:xlink="http://www.w3.org/1999/xlink" width="500" zoomAndPan="magnify" viewBox="0 0 250 100" height="300" preserveAspectRatio="xMidYMid meet" version="1.0"><defs><g/><clipPath id="dbda3fc543"><path d="M 147 91 L 262.5 91 L 262.5 142.984375 L 147 142.984375 Z M 147 91 " clip-rule="nonzero"/></clipPath><clipPath id="ed43513392"><path d="M 112.5 71 L 158 71 L 158 133 L 112.5 133 Z M 112.5 71 " clip-rule="nonzero"/></clipPath></defs><path fill="#3871c1" d="M 147.070312 131.089844 C 147.070312 131.089844 143.878906 71.0625 189.625 88.09375 C 242.335938 107.722656 259.988281 74.007812 259.988281 74.007812 C 259.988281 74.007812 249.210938 114.566406 188.523438 95.25 C 149.308594 82.765625 147.070312 131.089844 147.070312 131.089844 " fill-opacity="1" fill-rule="nonzero"/><g clip-path="url(#dbda3fc543)"><path fill="#f68712" d="M 191.816406 102.277344 C 146.960938 83.039062 147.054688 142.984375 147.054688 142.984375 C 147.054688 142.984375 151.835938 94.84375 190.339844 109.367188 C 249.921875 131.84375 262.460938 91.898438 262.460938 91.898438 C 262.460938 91.898438 245.261719 125.203125 191.816406 102.277344 " fill-opacity="1" fill-rule="nonzero"/></g><g clip-path="url(#ed43513392)"><path fill="#322f30" d="M 156.808594 80.820312 C 156.609375 80.816406 156.140625 81.261719 156.140625 81.261719 L 156.945312 79.859375 C 156.507812 77.316406 154.980469 71.953125 149.84375 71.59375 C 141.148438 70.984375 140.957031 79.257812 140.957031 79.257812 L 141.691406 80.714844 C 141.691406 80.714844 140.996094 79.949219 140.695312 80 C 140.121094 80.101562 139.980469 80.902344 139.980469 81.722656 C 139.980469 83.164062 140.632812 84.335938 141.441406 84.335938 C 141.515625 84.335938 141.59375 84.324219 141.667969 84.300781 C 141.667969 84.300781 142.96875 86.910156 143.773438 88.679688 C 144.578125 89.71875 145.652344 90.652344 147.054688 91.082031 C 147.054688 91.082031 145.847656 90.964844 144.332031 90.515625 C 144.097656 91.132812 143.1875 91.402344 142.726562 91.757812 C 146.003906 91.609375 148.554688 93.871094 148.554688 93.871094 C 148.554688 93.871094 144.019531 91.121094 140.507812 93.144531 C 135.640625 95.945312 130.359375 93.871094 130.359375 93.871094 C 130.359375 93.871094 135.128906 94.726562 140.183594 92.386719 C 140.289062 92.335938 140.398438 92.289062 140.503906 92.246094 C 137.859375 91.230469 135.402344 89.703125 129.011719 92.796875 C 129.011719 92.796875 127.355469 93.492188 126.40625 94.957031 C 126.40625 94.957031 126.664062 93.621094 128.113281 92.421875 C 126.84375 91.972656 124.457031 91.433594 122.398438 92.675781 C 122.398438 92.675781 120.742188 93.371094 119.792969 94.835938 C 119.792969 94.835938 120.515625 93.054688 122.527344 91.757812 C 122.832031 89.949219 123.773438 85.871094 126.359375 83.367188 C 126.480469 83.25 126.59375 83.148438 126.695312 83.058594 C 125.863281 83.214844 125.191406 83.542969 125.191406 83.542969 C 126.539062 82.296875 127.75 82.796875 128.628906 82.722656 C 129.671875 82.632812 130.921875 83.164062 131.558594 83.070312 C 132.414062 82.945312 133.757812 82.796875 134.089844 82.613281 C 135.007812 82.101562 134.378906 81.050781 133.65625 81.019531 C 132.714844 80.976562 135.390625 81.046875 135.316406 79.96875 C 135.199219 78.296875 135.390625 77.765625 134.894531 77.109375 C 134.675781 76.816406 132.417969 74.773438 131.726562 74.773438 C 129.851562 74.777344 126.996094 76.523438 125.460938 77.210938 C 124.160156 77.796875 123.566406 78.972656 122.992188 79.902344 C 121.898438 81.683594 112.535156 93.308594 112.628906 96.832031 C 112.734375 100.664062 120.328125 104.609375 128.023438 102.050781 C 128.023438 102.050781 129.855469 101.203125 130.875 100.449219 C 130.875 100.449219 129.773438 101.71875 128.421875 102.5625 C 131.816406 105.535156 129.527344 107.148438 137.785156 113.859375 C 139.851562 115.539062 137.6875 119.457031 140.847656 123.328125 C 142.878906 125.808594 141.671875 128.652344 146.4375 132.089844 C 146.4375 132.089844 141.035156 114.035156 153.210938 89.71875 C 153.941406 88.253906 154.96875 86.40625 155.519531 84.320312 C 155.570312 84.332031 155.617188 84.335938 155.667969 84.335938 C 156.476562 84.335938 157.460938 83.21875 157.460938 81.777344 C 157.460938 81.402344 157.367188 80.832031 156.808594 80.820312 " fill-opacity="1" fill-rule="nonzero"/></g><g fill="#000000" fill-opacity="1"><g transform="translate(158.278294, 144.111134)"><g><path d="M 19.980469 -21.855469 L 3.183594 -21.855469 L 2.402344 -17.890625 L 8.617188 -17.890625 L 5.058594 0 L 9.554688 0 L 13.144531 -17.890625 L 19.203125 -17.890625 Z M 19.980469 -21.855469 "/></g></g></g><g fill="#000000" fill-opacity="1"><g transform="translate(182.474977, 144.111134)"><g><path d="M 17.390625 -17.796875 L 18.203125 -21.855469 L 5.214844 -21.855469 L 0.875 0 L 5.371094 0 L 7.085938 -8.554688 L 14.738281 -8.554688 L 15.519531 -12.519531 L 7.867188 -12.519531 L 8.929688 -17.796875 Z M 17.390625 -17.796875 "/></g></g></g><g fill="#000000" fill-opacity="1"><g transform="translate(205.360476, 144.111134)"><g><path d="M 11.054688 0.46875 C 16.546875 0.46875 21.167969 -2.527344 23.199219 -8.429688 L 18.640625 -8.429688 C 17.328125 -5.589844 14.707031 -3.839844 11.644531 -3.839844 C 8.273438 -3.839844 6.152344 -5.964844 6.152344 -9.210938 C 6.152344 -13.769531 9.898438 -17.984375 14.457031 -17.984375 C 17.328125 -17.984375 19.203125 -16.359375 19.640625 -13.707031 L 24.136719 -13.707031 C 23.949219 -18.703125 20.167969 -22.292969 14.988281 -22.292969 C 7.554688 -22.292969 1.59375 -16.359375 1.59375 -8.898438 C 1.59375 -3.527344 5.402344 0.46875 11.054688 0.46875 Z M 11.054688 0.46875 "/></g></g></g><g fill="#000000" fill-opacity="1"><g transform="translate(233.706245, 127.207461)"><g><path d="M 3.160156 -7.097656 C 1.96875 -7.097656 0.898438 -6.070312 0.898438 -4.878906 C 0.898438 -4 1.570312 -3.308594 2.488281 -3.308594 C 3.699219 -3.308594 4.75 -4.390625 4.75 -5.539062 C 4.75 -6.417969 4.078125 -7.097656 3.160156 -7.097656 Z M 2.519531 -3.660156 C 1.769531 -3.660156 1.25 -4.1875 1.25 -4.890625 C 1.25 -5.867188 2.148438 -6.738281 3.140625 -6.738281 C 3.878906 -6.738281 4.398438 -6.207031 4.398438 -5.507812 C 4.398438 -4.570312 3.527344 -3.660156 2.519531 -3.660156 Z M 3.160156 -6.207031 L 2.378906 -6.207031 L 1.980469 -4.25 L 2.339844 -4.25 L 2.480469 -4.96875 L 2.828125 -4.96875 L 3.097656 -4.25 L 3.46875 -4.25 L 3.179688 -5 C 3.488281 -5.078125 3.699219 -5.320312 3.699219 -5.648438 C 3.699219 -5.957031 3.480469 -6.207031 3.160156 -6.207031 Z M 2.960938 -5.277344 L 2.539062 -5.277344 L 2.660156 -5.878906 L 3.089844 -5.878906 C 3.269531 -5.878906 3.359375 -5.789062 3.359375 -5.636719 C 3.359375 -5.429688 3.1875 -5.277344 2.960938 -5.277344 Z M 2.960938 -5.277344 "/></g></g></g></svg>