<svg xmlns="http://www.w3.org/2000/svg" xmlns:xlink="http://www.w3.org/1999/xlink" width="100" zoomAndPan="magnify" viewBox="0 0 375 225" height="100" preserveAspectRatio="xMidYMid meet" version="1.0"><defs><g/><clipPath id="3f9f9ea20b"><path d="M 108 76 L 224.148438 76 L 224.148438 127.660156 L 108 127.660156 Z M 108 76 " clip-rule="nonzero"/></clipPath><clipPath id="4b00a40472"><path d="M 74.148438 56 L 120 56 L 120 117 L 74.148438 117 Z M 74.148438 56 " clip-rule="nonzero"/></clipPath></defs><path fill="#3871c1" d="M 108.71875 115.765625 C 108.71875 115.765625 105.527344 55.734375 151.269531 72.769531 C 203.984375 92.394531 221.632812 58.683594 221.632812 58.683594 C 221.632812 58.683594 210.855469 99.242188 150.171875 79.925781 C 110.957031 67.441406 108.71875 115.765625 108.71875 115.765625 " fill-opacity="1" fill-rule="nonzero"/><g clip-path="url(#3f9f9ea20b)"><path fill="#f68712" d="M 153.460938 86.953125 C 108.609375 67.714844 108.699219 127.65625 108.699219 127.65625 C 108.699219 127.65625 113.484375 79.515625 151.988281 94.042969 C 211.570312 116.519531 224.109375 76.570312 224.109375 76.570312 C 224.109375 76.570312 206.90625 109.878906 153.460938 86.953125 " fill-opacity="1" fill-rule="nonzero"/></g><g clip-path="url(#4b00a40472)"><path fill="#322f30" d="M 118.453125 65.496094 C 118.253906 65.492188 117.789062 65.933594 117.789062 65.933594 L 118.59375 64.53125 C 118.152344 61.992188 116.625 56.625 111.492188 56.265625 C 102.792969 55.65625 102.601562 63.933594 102.601562 63.933594 L 103.335938 65.390625 C 103.335938 65.390625 102.644531 64.625 102.34375 64.675781 C 101.769531 64.773438 101.625 65.578125 101.625 66.394531 C 101.625 67.839844 102.28125 69.007812 103.085938 69.007812 C 103.164062 69.007812 103.238281 69 103.3125 68.976562 C 103.3125 68.976562 104.617188 71.582031 105.417969 73.355469 C 106.222656 74.394531 107.296875 75.324219 108.699219 75.757812 C 108.699219 75.757812 107.492188 75.636719 105.980469 75.191406 C 105.742188 75.808594 104.832031 76.078125 104.375 76.433594 C 107.652344 76.285156 110.203125 78.546875 110.203125 78.546875 C 110.203125 78.546875 105.664062 75.792969 102.152344 77.816406 C 97.285156 80.621094 92.007812 78.546875 92.007812 78.546875 C 92.007812 78.546875 96.777344 79.402344 101.828125 77.0625 C 101.9375 77.011719 102.042969 76.964844 102.152344 76.921875 C 99.503906 75.902344 97.050781 74.378906 90.660156 77.472656 C 90.660156 77.472656 89 78.167969 88.050781 79.632812 C 88.050781 79.632812 88.3125 78.296875 89.757812 77.09375 C 88.488281 76.648438 86.101562 76.105469 84.046875 77.351562 C 84.046875 77.351562 82.390625 78.046875 81.441406 79.511719 C 81.441406 79.511719 82.160156 77.730469 84.175781 76.433594 C 84.476562 74.621094 85.421875 70.542969 88.007812 68.039062 C 88.128906 67.921875 88.238281 67.820312 88.34375 67.730469 C 87.511719 67.886719 86.839844 68.214844 86.839844 68.214844 C 88.1875 66.96875 89.394531 67.46875 90.277344 67.394531 C 91.320312 67.308594 92.570312 67.835938 93.207031 67.742188 C 94.0625 67.621094 95.402344 67.472656 95.734375 67.289062 C 96.65625 66.777344 96.023438 65.726562 95.300781 65.695312 C 94.359375 65.652344 97.035156 65.722656 96.960938 64.644531 C 96.847656 62.972656 97.035156 62.441406 96.542969 61.785156 C 96.320312 61.492188 94.0625 59.445312 93.371094 59.445312 C 91.5 59.453125 88.640625 61.199219 87.105469 61.886719 C 85.808594 62.472656 85.210938 63.644531 84.636719 64.578125 C 83.546875 66.355469 74.179688 77.984375 74.277344 81.507812 C 74.378906 85.335938 81.972656 89.285156 89.671875 86.726562 C 89.671875 86.726562 91.5 85.878906 92.519531 85.121094 C 92.519531 85.121094 91.421875 86.394531 90.066406 87.234375 C 93.460938 90.207031 91.175781 91.820312 99.433594 98.53125 C 101.5 100.210938 99.332031 104.132812 102.496094 108 C 104.523438 110.480469 103.316406 113.328125 108.082031 116.761719 C 108.082031 116.761719 102.679688 98.710938 114.855469 74.390625 C 115.589844 72.925781 116.613281 71.078125 117.164062 68.996094 C 117.214844 69.003906 117.265625 69.007812 117.316406 69.007812 C 118.121094 69.007812 119.109375 67.894531 119.109375 66.449219 C 119.109375 66.078125 119.011719 65.503906 118.453125 65.496094 " fill-opacity="1" fill-rule="nonzero"/></g><g fill="#000000" fill-opacity="1"><g transform="translate(132.040689, 130.187093)"><g><path d="M 19.980469 -21.855469 L 3.183594 -21.855469 L 2.402344 -17.890625 L 8.617188 -17.890625 L 5.058594 0 L 9.554688 0 L 13.144531 -17.890625 L 19.203125 -17.890625 Z M 19.980469 -21.855469 "/></g></g></g><g fill="#000000" fill-opacity="1"><g transform="translate(156.237372, 130.187093)"><g><path d="M 8.773438 0.46875 C 14.550781 0.46875 19.234375 -4.152344 19.234375 -9.773438 C 19.234375 -14.082031 16.046875 -17.296875 11.425781 -17.296875 C 5.652344 -17.296875 1 -12.707031 1 -7.054688 C 1 -2.777344 4.152344 0.46875 8.773438 0.46875 Z M 9.179688 -3.589844 C 6.867188 -3.589844 5.402344 -5.058594 5.402344 -7.273438 C 5.402344 -10.429688 7.804688 -13.238281 11.023438 -13.238281 C 13.363281 -13.238281 14.832031 -11.769531 14.832031 -9.554688 C 14.832031 -6.402344 12.425781 -3.589844 9.179688 -3.589844 Z M 9.179688 -3.589844 "/></g></g></g><g fill="#000000" fill-opacity="1"><g transform="translate(182.713031, 130.187093)"><g><path d="M 12.457031 -16.953125 C 10.367188 -16.953125 8.585938 -16.296875 7.054688 -14.894531 L 6.742188 -16.859375 L 3.933594 -16.859375 L 0.5625 0 L 4.902344 0 L 6.742188 -9.148438 C 7.335938 -11.707031 8.679688 -12.832031 11.207031 -12.832031 L 13.144531 -12.832031 L 13.957031 -16.953125 Z M 12.457031 -16.953125 "/></g></g></g><g fill="#000000" fill-opacity="1"><g transform="translate(201.664966, 130.187093)"><g><path d="M 8.773438 0.46875 C 14.550781 0.46875 19.234375 -4.152344 19.234375 -9.773438 C 19.234375 -14.082031 16.046875 -17.296875 11.425781 -17.296875 C 5.652344 -17.296875 1 -12.707031 1 -7.054688 C 1 -2.777344 4.152344 0.46875 8.773438 0.46875 Z M 9.179688 -3.589844 C 6.867188 -3.589844 5.402344 -5.058594 5.402344 -7.273438 C 5.402344 -10.429688 7.804688 -13.238281 11.023438 -13.238281 C 13.363281 -13.238281 14.832031 -11.769531 14.832031 -9.554688 C 14.832031 -6.402344 12.425781 -3.589844 9.179688 -3.589844 Z M 9.179688 -3.589844 "/></g></g></g><g fill="#000000" fill-opacity="1"><g transform="translate(228.140625, 130.187093)"><g><path d="M 13.332031 -17.296875 C 11.023438 -17.296875 8.835938 -16.359375 7.304688 -14.800781 L 6.898438 -16.859375 L 3.933594 -16.859375 L 0.5625 0 L 4.902344 0 L 6.679688 -8.929688 C 7.273438 -11.582031 9.117188 -13.269531 11.457031 -13.269531 C 13.144531 -13.269531 13.988281 -12.394531 13.988281 -10.679688 C 13.988281 -9.867188 13.800781 -9.273438 11.957031 0 L 16.296875 0 C 18.265625 -9.804688 18.484375 -10.492188 18.484375 -11.894531 C 18.484375 -15.175781 16.609375 -17.296875 13.332031 -17.296875 Z M 13.332031 -17.296875 "/></g></g></g><g fill="#000000" fill-opacity="1"><g transform="translate(254.366534, 130.187093)"><g><path d="M 13.269531 -12.925781 L 14.050781 -16.859375 L 9.273438 -16.859375 L 10.148438 -21.230469 L 9.335938 -21.230469 L 1.21875 -13.863281 L 1.03125 -12.925781 L 4.152344 -12.925781 C 2.871094 -6.652344 2.714844 -5.964844 2.714844 -5.027344 C 2.714844 -1.90625 4.777344 0.03125 8.273438 0.03125 L 10.742188 0.03125 L 11.550781 -3.996094 L 9.585938 -3.996094 C 8.023438 -3.996094 7.179688 -4.714844 7.179688 -6.058594 C 7.179688 -6.496094 7.273438 -6.898438 8.492188 -12.925781 Z M 13.269531 -12.925781 "/></g></g></g><g fill="#000000" fill-opacity="1"><g transform="translate(273.942843, 130.187093)"><g><path d="M 8.773438 0.46875 C 14.550781 0.46875 19.234375 -4.152344 19.234375 -9.773438 C 19.234375 -14.082031 16.046875 -17.296875 11.425781 -17.296875 C 5.652344 -17.296875 1 -12.707031 1 -7.054688 C 1 -2.777344 4.152344 0.46875 8.773438 0.46875 Z M 9.179688 -3.589844 C 6.867188 -3.589844 5.402344 -5.058594 5.402344 -7.273438 C 5.402344 -10.429688 7.804688 -13.238281 11.023438 -13.238281 C 13.363281 -13.238281 14.832031 -11.769531 14.832031 -9.554688 C 14.832031 -6.402344 12.425781 -3.589844 9.179688 -3.589844 Z M 9.179688 -3.589844 "/></g></g></g><g fill="#000000" fill-opacity="1"><g transform="translate(132.040689, 159.437091)"><g><path d="M 17.390625 -17.796875 L 18.203125 -21.855469 L 5.214844 -21.855469 L 0.875 0 L 5.371094 0 L 7.085938 -8.554688 L 14.738281 -8.554688 L 15.519531 -12.519531 L 7.867188 -12.519531 L 8.929688 -17.796875 Z M 17.390625 -17.796875 "/></g></g></g><g fill="#000000" fill-opacity="1"><g transform="translate(154.926189, 159.437091)"><g><path d="M 4.214844 -19.203125 L 8.773438 -19.203125 L 9.617188 -23.261719 L 5.058594 -23.261719 Z M 0.5625 0.03125 L 4.902344 0.03125 L 8.273438 -16.828125 L 3.933594 -16.828125 Z M 0.5625 0.03125 "/></g></g></g><g fill="#000000" fill-opacity="1"><g transform="translate(169.975772, 159.437091)"><g><path d="M 13.269531 -12.925781 L 14.050781 -16.859375 L 9.273438 -16.859375 L 10.148438 -21.230469 L 9.335938 -21.230469 L 1.21875 -13.863281 L 1.03125 -12.925781 L 4.152344 -12.925781 C 2.871094 -6.652344 2.714844 -5.964844 2.714844 -5.027344 C 2.714844 -1.90625 4.777344 0.03125 8.273438 0.03125 L 10.742188 0.03125 L 11.550781 -3.996094 L 9.585938 -3.996094 C 8.023438 -3.996094 7.179688 -4.714844 7.179688 -6.058594 C 7.179688 -6.496094 7.273438 -6.898438 8.492188 -12.925781 Z M 13.269531 -12.925781 "/></g></g></g><g fill="#000000" fill-opacity="1"><g transform="translate(189.552078, 159.437091)"><g><path d="M 13.332031 -17.296875 C 11.023438 -17.296875 8.835938 -16.359375 7.304688 -14.800781 L 6.898438 -16.859375 L 3.933594 -16.859375 L 0.5625 0 L 4.902344 0 L 6.679688 -8.929688 C 7.273438 -11.582031 9.117188 -13.269531 11.457031 -13.269531 C 13.144531 -13.269531 13.988281 -12.394531 13.988281 -10.679688 C 13.988281 -9.867188 13.800781 -9.273438 11.957031 0 L 16.296875 0 C 18.265625 -9.804688 18.484375 -10.492188 18.484375 -11.894531 C 18.484375 -15.175781 16.609375 -17.296875 13.332031 -17.296875 Z M 13.332031 -17.296875 "/></g></g></g><g fill="#000000" fill-opacity="1"><g transform="translate(215.777981, 159.437091)"><g><path d="M 18.203125 -7.148438 C 18.453125 -8.023438 18.609375 -8.867188 18.609375 -9.867188 C 18.609375 -13.988281 15.578125 -17.296875 11.113281 -17.296875 C 5.214844 -17.296875 1 -12.613281 1 -6.992188 C 1 -2.777344 3.964844 0.46875 8.304688 0.46875 C 12.363281 0.46875 15.703125 -1.71875 17.671875 -5.464844 L 13.019531 -5.464844 C 12.050781 -4.183594 10.523438 -3.402344 8.804688 -3.402344 C 6.464844 -3.402344 5.121094 -4.621094 5.121094 -6.929688 C 5.121094 -7.023438 5.121094 -7.085938 5.121094 -7.148438 Z M 10.804688 -13.582031 C 12.988281 -13.582031 14.300781 -12.394531 14.519531 -10.210938 L 5.839844 -10.210938 C 6.773438 -12.144531 8.523438 -13.582031 10.804688 -13.582031 Z M 10.804688 -13.582031 "/></g></g></g><g fill="#000000" fill-opacity="1"><g transform="translate(241.535604, 159.437091)"><g><path d="M 6.527344 0.46875 C 11.023438 0.46875 14.550781 -1.90625 14.550781 -6.121094 C 14.550781 -9.179688 11.707031 -9.742188 9.367188 -10.179688 C 7.679688 -10.492188 6.277344 -10.773438 6.277344 -11.863281 C 6.277344 -13.019531 7.460938 -13.832031 9.117188 -13.832031 C 10.585938 -13.832031 11.425781 -13.207031 11.425781 -12.113281 C 11.425781 -11.988281 11.425781 -11.863281 11.394531 -11.707031 L 15.488281 -11.707031 C 15.546875 -12.050781 15.578125 -12.363281 15.578125 -12.644531 C 15.578125 -15.300781 13.269531 -17.296875 9.648438 -17.296875 C 5.371094 -17.296875 1.96875 -15.050781 1.96875 -11.023438 C 1.96875 -7.960938 4.777344 -7.429688 7.117188 -6.992188 C 8.773438 -6.679688 10.179688 -6.402344 10.179688 -5.277344 C 10.179688 -3.902344 8.679688 -3.152344 7.179688 -3.152344 C 5.746094 -3.152344 4.621094 -3.777344 4.621094 -5.058594 C 4.621094 -5.183594 4.652344 -5.339844 4.683594 -5.496094 L 0.5 -5.496094 C 0.4375 -5.152344 0.40625 -4.808594 0.40625 -4.464844 C 0.40625 -1.4375 2.964844 0.46875 6.527344 0.46875 Z M 6.527344 0.46875 "/></g></g></g><g fill="#000000" fill-opacity="1"><g transform="translate(264.046475, 159.437091)"><g><path d="M 6.527344 0.46875 C 11.023438 0.46875 14.550781 -1.90625 14.550781 -6.121094 C 14.550781 -9.179688 11.707031 -9.742188 9.367188 -10.179688 C 7.679688 -10.492188 6.277344 -10.773438 6.277344 -11.863281 C 6.277344 -13.019531 7.460938 -13.832031 9.117188 -13.832031 C 10.585938 -13.832031 11.425781 -13.207031 11.425781 -12.113281 C 11.425781 -11.988281 11.425781 -11.863281 11.394531 -11.707031 L 15.488281 -11.707031 C 15.546875 -12.050781 15.578125 -12.363281 15.578125 -12.644531 C 15.578125 -15.300781 13.269531 -17.296875 9.648438 -17.296875 C 5.371094 -17.296875 1.96875 -15.050781 1.96875 -11.023438 C 1.96875 -7.960938 4.777344 -7.429688 7.117188 -6.992188 C 8.773438 -6.679688 10.179688 -6.402344 10.179688 -5.277344 C 10.179688 -3.902344 8.679688 -3.152344 7.179688 -3.152344 C 5.746094 -3.152344 4.621094 -3.777344 4.621094 -5.058594 C 4.621094 -5.183594 4.652344 -5.339844 4.683594 -5.496094 L 0.5 -5.496094 C 0.4375 -5.152344 0.40625 -4.808594 0.40625 -4.464844 C 0.40625 -1.4375 2.964844 0.46875 6.527344 0.46875 Z M 6.527344 0.46875 "/></g></g></g><g fill="#000000" fill-opacity="1"><g transform="translate(281.820691, 147.764783)"><g><path d="M 3.160156 -7.097656 C 1.96875 -7.097656 0.898438 -6.070312 0.898438 -4.878906 C 0.898438 -4 1.570312 -3.308594 2.488281 -3.308594 C 3.699219 -3.308594 4.75 -4.390625 4.75 -5.539062 C 4.75 -6.417969 4.078125 -7.097656 3.160156 -7.097656 Z M 2.519531 -3.660156 C 1.769531 -3.660156 1.25 -4.1875 1.25 -4.890625 C 1.25 -5.867188 2.148438 -6.738281 3.140625 -6.738281 C 3.878906 -6.738281 4.398438 -6.207031 4.398438 -5.507812 C 4.398438 -4.570312 3.527344 -3.660156 2.519531 -3.660156 Z M 3.160156 -6.207031 L 2.378906 -6.207031 L 1.980469 -4.25 L 2.339844 -4.25 L 2.480469 -4.96875 L 2.828125 -4.96875 L 3.097656 -4.25 L 3.46875 -4.25 L 3.179688 -5 C 3.488281 -5.078125 3.699219 -5.320312 3.699219 -5.648438 C 3.699219 -5.957031 3.480469 -6.207031 3.160156 -6.207031 Z M 2.960938 -5.277344 L 2.539062 -5.277344 L 2.660156 -5.878906 L 3.089844 -5.878906 C 3.269531 -5.878906 3.359375 -5.789062 3.359375 -5.636719 C 3.359375 -5.429688 3.1875 -5.277344 2.960938 -5.277344 Z M 2.960938 -5.277344 "/></g></g></g></svg>