<svg xmlns="http://www.w3.org/2000/svg" xmlns:xlink="http://www.w3.org/1999/xlink" width="60" zoomAndPan="magnify" viewBox="0 0 810 809.999993" height="60" preserveAspectRatio="xMidYMid meet" version="1.0"><defs><clipPath id="99b103671a"><path d="M 197 127.667969 L 613.25 127.667969 L 613.25 682.667969 L 197 682.667969 Z M 197 127.667969 " clip-rule="nonzero"/></clipPath></defs><g clip-path="url(#99b103671a)"><path fill="#ff0000" d="M 405.125 127.667969 C 290.34375 127.667969 197 221.011719 197 335.792969 C 197 480.058594 384.867188 669.589844 392.847656 677.601562 C 396.246094 680.964844 400.683594 682.664062 405.125 682.664062 C 409.566406 682.664062 414.003906 680.964844 417.40625 677.601562 C 425.382812 669.589844 613.25 480.058594 613.25 335.792969 C 613.25 221.011719 519.90625 127.667969 405.125 127.667969 Z M 405.125 127.667969 " fill-opacity="1" fill-rule="nonzero"/></g><path fill="#fafafa" d="M 509.1875 335.792969 C 509.1875 337.496094 509.144531 339.199219 509.0625 340.898438 C 508.980469 342.601562 508.855469 344.296875 508.6875 345.992188 C 508.519531 347.6875 508.3125 349.378906 508.0625 351.0625 C 507.8125 352.746094 507.519531 354.425781 507.1875 356.09375 C 506.855469 357.765625 506.484375 359.425781 506.070312 361.078125 C 505.65625 362.730469 505.203125 364.371094 504.707031 366 C 504.210938 367.628906 503.679688 369.246094 503.105469 370.851562 C 502.53125 372.453125 501.917969 374.042969 501.265625 375.617188 C 500.613281 377.1875 499.925781 378.746094 499.195312 380.285156 C 498.46875 381.824219 497.703125 383.34375 496.898438 384.847656 C 496.097656 386.347656 495.257812 387.832031 494.382812 389.292969 C 493.507812 390.753906 492.597656 392.191406 491.648438 393.605469 C 490.703125 395.023438 489.722656 396.414062 488.710938 397.78125 C 487.695312 399.148438 486.648438 400.492188 485.566406 401.808594 C 484.488281 403.125 483.375 404.414062 482.230469 405.675781 C 481.085938 406.9375 479.914062 408.171875 478.707031 409.375 C 477.503906 410.578125 476.269531 411.753906 475.007812 412.898438 C 473.746094 414.042969 472.457031 415.152344 471.140625 416.234375 C 469.824219 417.3125 468.484375 418.363281 467.117188 419.375 C 465.746094 420.390625 464.355469 421.371094 462.9375 422.316406 C 461.523438 423.261719 460.085938 424.175781 458.625 425.050781 C 457.164062 425.925781 455.683594 426.765625 454.179688 427.566406 C 452.679688 428.371094 451.15625 429.136719 449.617188 429.863281 C 448.078125 430.589844 446.523438 431.28125 444.949219 431.933594 C 443.375 432.585938 441.785156 433.199219 440.183594 433.773438 C 438.578125 434.34375 436.964844 434.878906 435.332031 435.375 C 433.703125 435.867188 432.0625 436.320312 430.410156 436.734375 C 428.757812 437.148438 427.097656 437.523438 425.425781 437.855469 C 423.757812 438.1875 422.078125 438.476562 420.394531 438.726562 C 418.710938 438.976562 417.019531 439.1875 415.324219 439.351562 C 413.628906 439.519531 411.933594 439.644531 410.230469 439.730469 C 408.53125 439.8125 406.828125 439.855469 405.125 439.855469 C 403.421875 439.855469 401.71875 439.8125 400.019531 439.730469 C 398.316406 439.644531 396.621094 439.519531 394.925781 439.351562 C 393.230469 439.1875 391.539062 438.976562 389.855469 438.726562 C 388.171875 438.476562 386.496094 438.1875 384.824219 437.855469 C 383.152344 437.523438 381.492188 437.148438 379.839844 436.734375 C 378.1875 436.320312 376.546875 435.867188 374.917969 435.375 C 373.289062 434.878906 371.671875 434.34375 370.066406 433.773438 C 368.464844 433.199219 366.875 432.585938 365.300781 431.933594 C 363.730469 431.28125 362.171875 430.589844 360.632812 429.863281 C 359.09375 429.136719 357.574219 428.371094 356.070312 427.566406 C 354.570312 426.765625 353.085938 425.925781 351.625 425.050781 C 350.164062 424.175781 348.726562 423.261719 347.3125 422.316406 C 345.894531 421.371094 344.503906 420.390625 343.136719 419.375 C 341.769531 418.363281 340.425781 417.3125 339.109375 416.234375 C 337.792969 415.152344 336.503906 414.042969 335.242188 412.898438 C 333.980469 411.753906 332.746094 410.578125 331.542969 409.375 C 330.339844 408.171875 329.164062 406.9375 328.019531 405.675781 C 326.875 404.414062 325.765625 403.125 324.683594 401.808594 C 323.605469 400.492188 322.554688 399.148438 321.542969 397.78125 C 320.527344 396.414062 319.546875 395.023438 318.601562 393.605469 C 317.65625 392.191406 316.742188 390.753906 315.867188 389.292969 C 314.992188 387.832031 314.152344 386.347656 313.351562 384.847656 C 312.546875 383.34375 311.78125 381.824219 311.054688 380.285156 C 310.324219 378.746094 309.636719 377.1875 308.984375 375.617188 C 308.332031 374.042969 307.71875 372.453125 307.144531 370.851562 C 306.574219 369.246094 306.039062 367.628906 305.542969 366 C 305.050781 364.371094 304.59375 362.730469 304.179688 361.078125 C 303.769531 359.425781 303.394531 357.765625 303.0625 356.09375 C 302.730469 354.425781 302.4375 352.746094 302.1875 351.0625 C 301.9375 349.378906 301.730469 347.6875 301.5625 345.992188 C 301.398438 344.296875 301.273438 342.601562 301.1875 340.898438 C 301.105469 339.199219 301.0625 337.496094 301.0625 335.792969 C 301.0625 334.089844 301.105469 332.386719 301.1875 330.6875 C 301.273438 328.984375 301.398438 327.289062 301.5625 325.59375 C 301.730469 323.898438 301.9375 322.207031 302.1875 320.523438 C 302.4375 318.839844 302.730469 317.160156 303.0625 315.492188 C 303.394531 313.820312 303.769531 312.160156 304.179688 310.507812 C 304.59375 308.855469 305.050781 307.214844 305.542969 305.585938 C 306.039062 303.957031 306.574219 302.339844 307.144531 300.734375 C 307.71875 299.132812 308.332031 297.542969 308.984375 295.96875 C 309.636719 294.398438 310.324219 292.839844 311.054688 291.300781 C 311.78125 289.761719 312.546875 288.242188 313.351562 286.738281 C 314.152344 285.238281 314.992188 283.753906 315.867188 282.292969 C 316.742188 280.832031 317.65625 279.394531 318.601562 277.980469 C 319.546875 276.5625 320.527344 275.171875 321.542969 273.804688 C 322.554688 272.433594 323.605469 271.09375 324.683594 269.777344 C 325.765625 268.460938 326.875 267.171875 328.019531 265.910156 C 329.164062 264.648438 330.339844 263.414062 331.542969 262.210938 C 332.746094 261.003906 333.980469 259.832031 335.242188 258.6875 C 336.503906 257.542969 337.792969 256.433594 339.109375 255.351562 C 340.425781 254.273438 341.769531 253.222656 343.136719 252.210938 C 344.503906 251.195312 345.894531 250.214844 347.3125 249.269531 C 348.726562 248.324219 350.164062 247.410156 351.625 246.535156 C 353.085938 245.660156 354.570312 244.820312 356.070312 244.019531 C 357.574219 243.214844 359.09375 242.449219 360.632812 241.722656 C 362.171875 240.992188 363.730469 240.304688 365.300781 239.652344 C 366.875 239 368.464844 238.386719 370.066406 237.8125 C 371.671875 237.242188 373.289062 236.707031 374.917969 236.210938 C 376.546875 235.71875 378.1875 235.261719 379.839844 234.851562 C 381.492188 234.4375 383.152344 234.0625 384.824219 233.730469 C 386.496094 233.398438 388.171875 233.105469 389.855469 232.855469 C 391.539062 232.609375 393.230469 232.398438 394.925781 232.230469 C 396.621094 232.066406 398.316406 231.941406 400.019531 231.855469 C 401.71875 231.773438 403.421875 231.730469 405.125 231.730469 C 406.828125 231.730469 408.53125 231.773438 410.230469 231.855469 C 411.933594 231.941406 413.628906 232.066406 415.324219 232.230469 C 417.019531 232.398438 418.710938 232.609375 420.394531 232.855469 C 422.078125 233.105469 423.757812 233.398438 425.425781 233.730469 C 427.097656 234.0625 428.757812 234.4375 430.410156 234.851562 C 432.0625 235.261719 433.703125 235.71875 435.332031 236.210938 C 436.964844 236.707031 438.578125 237.242188 440.183594 237.8125 C 441.785156 238.386719 443.375 239 444.949219 239.652344 C 446.523438 240.304688 448.078125 240.992188 449.617188 241.722656 C 451.15625 242.449219 452.679688 243.214844 454.179688 244.019531 C 455.683594 244.820312 457.164062 245.660156 458.625 246.535156 C 460.085938 247.410156 461.523438 248.324219 462.9375 249.269531 C 464.355469 250.214844 465.746094 251.195312 467.117188 252.210938 C 468.484375 253.222656 469.824219 254.273438 471.140625 255.351562 C 472.457031 256.433594 473.746094 257.542969 475.007812 258.6875 C 476.269531 259.832031 477.503906 261.003906 478.707031 262.210938 C 479.914062 263.414062 481.085938 264.648438 482.230469 265.910156 C 483.375 267.171875 484.488281 268.460938 485.566406 269.777344 C 486.648438 271.09375 487.695312 272.433594 488.710938 273.804688 C 489.722656 275.171875 490.703125 276.5625 491.648438 277.980469 C 492.597656 279.394531 493.507812 280.832031 494.382812 282.292969 C 495.257812 283.753906 496.097656 285.238281 496.898438 286.738281 C 497.703125 288.242188 498.46875 289.761719 499.195312 291.300781 C 499.925781 292.839844 500.613281 294.398438 501.265625 295.96875 C 501.917969 297.542969 502.53125 299.132812 503.105469 300.734375 C 503.679688 302.339844 504.210938 303.957031 504.707031 305.585938 C 505.203125 307.214844 505.65625 308.855469 506.070312 310.507812 C 506.484375 312.160156 506.855469 313.820312 507.1875 315.492188 C 507.519531 317.160156 507.8125 318.839844 508.0625 320.523438 C 508.3125 322.207031 508.519531 323.898438 508.6875 325.59375 C 508.855469 327.289062 508.980469 328.984375 509.0625 330.6875 C 509.144531 332.386719 509.1875 334.089844 509.1875 335.792969 Z M 509.1875 335.792969 " fill-opacity="1" fill-rule="nonzero"/></svg>